<svg id="Layer_1" data-name="Layer 1" xmlns="http://www.w3.org/2000/svg" viewBox="0 0 212 73"><title>augusta-logo</title><path d="M88.17,60c0,2.23,1.05,3.5,3,3.5a3.35,3.35,0,0,0,2.67-1.15l1,.89a4.67,4.67,0,0,1-3.72,1.57c-2.69,0-4.45-1.61-4.45-5.19,0-3.28,1.59-5.19,4.18-5.19S95,56.29,95,59.3V60Zm5.07-2.8a2.62,2.62,0,0,0-4.76,0,4.26,4.26,0,0,0-.31,1.69h5.38A4.25,4.25,0,0,0,93.24,57.18Z" style="fill:#a97e4b"/><path d="M117.54,64.66V58.42c0-1.79-1-2.7-2.5-2.7a2.39,2.39,0,0,0-2.52,2.7v6.25H111V54.52h1.49v1.11a3.67,3.67,0,0,1,2.85-1.24,3.57,3.57,0,0,1,2.61.95A3.74,3.74,0,0,1,119,58.17v6.49Z" style="fill:#a97e4b"/><path d="M136.41,60c0,2.23,1.05,3.5,3,3.5a3.35,3.35,0,0,0,2.67-1.15l1,.89a4.67,4.67,0,0,1-3.72,1.57c-2.69,0-4.45-1.61-4.45-5.19,0-3.28,1.59-5.19,4.18-5.19s4.18,1.9,4.18,4.91V60Zm5.07-2.8a2.62,2.62,0,0,0-4.76,0,4.26,4.26,0,0,0-.31,1.69h5.38A4.26,4.26,0,0,0,141.48,57.18Z" style="fill:#a97e4b"/><path d="M165,56.46a2.13,2.13,0,0,0-1.76-.74,2.48,2.48,0,0,0-2.44,2.72v6.23h-1.49V54.52h1.49v1.24a3.42,3.42,0,0,1,2.85-1.36,3.14,3.14,0,0,1,2.44.95Z" style="fill:#a97e4b"/><path d="M183.37,69.32A4.5,4.5,0,0,1,179.91,68l1-.95a3.14,3.14,0,0,0,2.44,1c2,0,2.79-1.38,2.79-3.11V63.32a3.28,3.28,0,0,1-2.85,1.32,3.51,3.51,0,0,1-2.46-.91c-1-1-1.24-2.58-1.24-4.23s.23-3.22,1.24-4.23a3.55,3.55,0,0,1,2.48-.89,3.21,3.21,0,0,1,2.85,1.32v-1.2h1.47V65A4,4,0,0,1,183.37,69.32Zm.23-13.6c-2.21,0-2.54,1.9-2.54,3.79s.33,3.79,2.54,3.79,2.52-1.9,2.52-3.79S185.81,55.72,183.59,55.72Z" style="fill:#a97e4b"/><path d="M206.68,67.12a3,3,0,0,1-.72,1.2,2.8,2.8,0,0,1-2,.7h-.64V67.69h.45c1,0,1.34-.33,1.68-1.26l.72-2-3.66-9.94h1.61l2.79,8.14,2.77-8.14h1.61Z" style="fill:#a97e4b"/><path d="M40.42,68.2a18,18,0,0,1,2.32-.94c.9-.23,1.86-.23,2.77-.42,1.61-.33,3.23-.65,4.81-1.11A30.52,30.52,0,0,0,66.89,53.93,34.57,34.57,0,0,0,72.23,42a40.55,40.55,0,0,0,1.18-6.76,28.58,28.58,0,0,0-.22-6,33,33,0,0,0-2.59-8.94A43.78,43.78,0,0,0,61.2,6.94a2.87,2.87,0,0,1-.91-1.63,5.5,5.5,0,0,0-4.66-4.19A6.9,6.9,0,0,1,52.39,0c.28.73.49,1.37.75,2a7.19,7.19,0,0,0,6.4,4.59,1.36,1.36,0,0,1,.94.47c1.43,1.62,3,3.17,4.27,4.88,4.44,5.76,7.51,12.1,8,19.49a24.73,24.73,0,0,1-.11,5.19,46.91,46.91,0,0,1-2,8.6A30.47,30.47,0,0,1,55.36,63a30.81,30.81,0,0,1-10.69,3.25,10.9,10.9,0,0,0-4.61,1.44.59.59,0,0,1-.46,0,16.24,16.24,0,0,0-2-.93A17.47,17.47,0,0,0,35,66.31a34,34,0,0,1-7.22-1.79,30,30,0,0,1-14.44-11C9.47,48,7.65,41.76,7,35.12a26.24,26.24,0,0,1,.77-8.72,37.51,37.51,0,0,1,6.13-13A50.25,50.25,0,0,1,19.32,7,1.57,1.57,0,0,1,20,6.63c.56-.14,1.16-.17,1.72-.33A7.61,7.61,0,0,0,27.28,0a3.31,3.31,0,0,1-1.63.8c-.79.2-1.6.29-2.37.54a5.09,5.09,0,0,0-3.81,4.06,2.49,2.49,0,0,1-.79,1.41A44.06,44.06,0,0,0,9.14,20.37,32.38,32.38,0,0,0,6.36,31.51,27.24,27.24,0,0,0,6.71,38a47.46,47.46,0,0,0,2,7.88,32.05,32.05,0,0,0,7.16,11.73,31.25,31.25,0,0,0,13.11,8A27.69,27.69,0,0,0,35.39,67,8.08,8.08,0,0,1,39,68.06l.34.23a4.38,4.38,0,0,0-1.61,2.26l-.69,2c-.06.18-.15.34.14.44s.37,0,.46-.25q.37-1,.78-2a5.14,5.14,0,0,1,1.27-1.88c.16-.15.29-.16.45,0a13.5,13.5,0,0,1,1,.93,7.9,7.9,0,0,1,1.61,3c.08.23.18.32.44.24s.25-.2.19-.42a7.5,7.5,0,0,0-2.64-4.07ZM13,27.06c-1.15.94-2.3,1.89-3.47,2.83a4.93,4.93,0,0,0-2.08,3.49,4.62,4.62,0,0,0,.69,2.76C12.4,34.13,13.47,30.64,13,27.06ZM10.07,45a8.15,8.15,0,0,0,2.77-10l-.22.31-2.08,2.74a17.61,17.61,0,0,0-1.21,1.66A4.29,4.29,0,0,0,10.07,45Zm52.38,4.73-.15,0c-.27.22-.56.42-.81.65-3.05,2.86-3.5,5.38-2.56,8.91.06.23.17.26.38.2a4.28,4.28,0,0,0,3.29-4.3c0-.82-.12-1.64-.14-2.46C62.43,51.74,62.45,50.76,62.45,49.77Zm8.35,9.75c-1.41-.28-2.82-.54-4.22-.83a6.4,6.4,0,0,0-2.49-.1,4.29,4.29,0,0,0-3.37,3C63.66,63.43,69,62.33,70.8,59.53ZM0,27.51c0,.67,0,1.34.1,2a7.81,7.81,0,0,0,5.15,6.72c.2.08.29,0,.37-.15a4.6,4.6,0,0,0,.42-2.18A4.24,4.24,0,0,0,4.3,30.66C2.9,29.6,1.46,28.58,0,27.51ZM75.7,16.66c-.84,1.42-1.69,2.84-2.5,4.28a4.47,4.47,0,0,0,1,5.91C77.37,23.84,77.56,20.1,75.7,16.66ZM66.94,35.08c-1.34,3.51-.89,7.07,2.79,10A4.59,4.59,0,0,0,71,42a4.76,4.76,0,0,0-1.13-3.1c-.56-.72-1.17-1.4-1.73-2.12C67.73,36.24,67.35,35.66,66.94,35.08ZM3.22,49.92c0,.05,0,.08,0,.1a8.68,8.68,0,0,0,4.21,4.25,8.74,8.74,0,0,0,4.48.62c.37,0,.44-.16.39-.48a4.49,4.49,0,0,0-4.51-4c-1,0-2-.17-2.95-.28C4.3,50.08,3.77,50,3.22,49.92ZM16.56,20.08c-1.58.43-3.15.85-4.72,1.3A4.44,4.44,0,0,0,8.37,26c0,.29.09.39.39.37A8.75,8.75,0,0,0,13,25.11,8.77,8.77,0,0,0,16.56,20.08ZM9,59.5c1.54,2.76,7.58,4,10.11,2-.25-.42-.48-.86-.77-1.26a4,4,0,0,0-4-1.69C12.57,58.8,10.78,59.18,9,59.5ZM66.76,26.94a9.41,9.41,0,0,0,.66,5.22,8.38,8.38,0,0,0,4.19,4,4.79,4.79,0,0,0,.75-2.5,4.64,4.64,0,0,0-1.86-3.53c-.79-.65-1.61-1.27-2.39-1.93C67.67,27.82,67.26,27.4,66.76,26.94ZM65.68,43c-2.53,2.29-2.74,8.12-.36,10.29a4.31,4.31,0,0,0,2.25-4.78c-.22-.92-.63-1.8-.94-2.7S66,43.94,65.68,43ZM5.5,26.84a4.36,4.36,0,0,0,1.13-5.77c-.32-.58-.69-1.13-1-1.7-.51-.91-1-1.83-1.51-2.74C2.32,19.88,2.26,23.64,5.5,26.84Zm12,22.9c-.1,1.55-.21,3.05-.29,4.56a7.79,7.79,0,0,0,0,1.64,4.27,4.27,0,0,0,3.2,3.54c.28.09.39,0,.45-.24a10.18,10.18,0,0,0,.33-3.7A8.51,8.51,0,0,0,17.47,49.74ZM61.7,67.81l-4.41-2.42a4.63,4.63,0,0,0-2.07-.6,4.45,4.45,0,0,0-3.75,1.81A8,8,0,0,0,61.7,67.81Zm9.7-49a8.71,8.71,0,0,0,1.48-5.53,9.41,9.41,0,0,0-2.22-4.84c-.09.35-.15.64-.25.92-.44,1.32-.92,2.63-1.33,4A4.44,4.44,0,0,0,71.41,18.8Zm8.3,8.67c-.3.25-.56.49-.84.7-1.11.82-2.24,1.6-3.33,2.44A4.36,4.36,0,0,0,74,35.78c.22.6.23.6.79.33.33-.16.65-.32,1-.5C79,33.73,79.93,30.64,79.7,27.48ZM76.64,49.9l-.32,0c-.89.12-1.78.25-2.67.36s-1.83.12-2.71.31a4.24,4.24,0,0,0-3.47,3.91c0,.24,0,.38.31.37.87,0,1.75,0,2.62-.08C73.43,54.45,75.2,52.46,76.64,49.9ZM28.29,66.59a4.58,4.58,0,0,0-3.12-1.79,5.37,5.37,0,0,0-3.14.81c-1.24.7-2.5,1.36-3.76,2l-.26.14C21.49,69.8,25.25,69.59,28.29,66.59ZM7.54,45.76a4.8,4.8,0,0,0-.22-3.06,5.07,5.07,0,0,0-2.8-2.52C3.17,39.58,1.82,39,.46,38.36a.32.32,0,0,0-.1,0A8,8,0,0,0,7.54,45.76ZM9.06,8.54c-2.54,2.08-2.92,7.67-.66,10.24a.67.67,0,0,0,.14,0,4.35,4.35,0,0,0,2.2-5.09C10.26,11.92,9.63,10.23,9.06,8.54ZM79.44,38.36c-1.61.71-3.2,1.39-4.77,2.11a4.48,4.48,0,0,0-2.43,5.32A8.33,8.33,0,0,0,77.53,43,9.26,9.26,0,0,0,79.44,38.36ZM29.27,64.13a8.29,8.29,0,0,0-2.28-6,9.69,9.69,0,0,0-4-2.3c.2.65.39,1.2.54,1.76.31,1.16.54,2.36.91,3.5A4.26,4.26,0,0,0,29.27,64.13ZM63.22,20.06c.06.2.12.41.19.62A8,8,0,0,0,71,26.41c.29,0,.41-.07.41-.37a4.24,4.24,0,0,0-2.49-4.25,14.47,14.47,0,0,0-2.05-.69C65.66,20.75,64.45,20.41,63.22,20.06ZM14.48,53.33A8,8,0,0,0,14.14,43c-.54,1.45-1.08,2.93-1.64,4.4a5.46,5.46,0,0,0-.37,2.34A4.43,4.43,0,0,0,14.48,53.33Zm42.2,2.54a9.57,9.57,0,0,0-4.29,2.71,8.53,8.53,0,0,0-1.89,5.36c0,.07.16.23.23.22A8.39,8.39,0,0,0,52.18,64a4.22,4.22,0,0,0,3.24-3.28C55.88,59.14,56.26,57.51,56.68,55.87ZM28,70.87c3.81,1.69,7.48,1,10.09-2.15a4.35,4.35,0,0,0-1.61-1.12,5.66,5.66,0,0,0-1.78-.35,4.84,4.84,0,0,0-2.84,1c-.8.58-1.61,1.14-2.43,1.69C29,70.29,28.51,70.56,28,70.87ZM52.19,71,47.9,68a4.07,4.07,0,0,0-.76-.41,4.28,4.28,0,0,0-4.89,1.06A8,8,0,0,0,52.19,71ZM31.93,58.55c.16.36.31.66.42,1,.46,1.26.87,2.54,1.36,3.79a4.31,4.31,0,0,0,4.82,3c.25,0,.36-.13.31-.39s-.09-.54-.15-.81A7.65,7.65,0,0,0,35.41,60,10.26,10.26,0,0,0,31.93,58.55Zm16.15,0c-3.82.53-7.11,4-7,7.43a5.23,5.23,0,0,0,2.15,0,4.27,4.27,0,0,0,3-2.75C46.9,61.71,47.48,60.13,48.07,58.57ZM16.27,1.25c-3.67,2.87-4.14,6.13-2.92,9.45l.35-.1c2.43-.85,3.2-2.75,2.93-5.08-.1-.85-.19-1.71-.27-2.56C16.32,2.41,16.31,1.85,16.27,1.25Zm47.22,0c0,.19,0,.31,0,.43,0,.63-.07,1.27-.12,1.9-.08,1-.22,2-.24,2.94a4,4,0,0,0,2.74,4c.19.07.39.12.6.19a8.08,8.08,0,0,0,.11-5.61A9.22,9.22,0,0,0,63.49,1.25ZM12.1,17.93a6.77,6.77,0,0,0,4.49-.33,9.07,9.07,0,0,0,3.66-3.8,3.47,3.47,0,0,1-.37.05c-1.16.05-2.32.14-3.48.14A4.27,4.27,0,0,0,12.1,17.93Zm47.41-4C61,17,65,19,67.67,17.89a1.8,1.8,0,0,0,0-.21A4.26,4.26,0,0,0,63.31,14C62,14,60.77,13.93,59.51,13.9Zm-43-2.72c2.27,1.43,6.38.26,8-2.28l-.21,0-2.2-.23a10.08,10.08,0,0,0-2.45-.24A4,4,0,0,0,16.51,11.18Zm46.81,0c-.15-.29-.27-.58-.43-.84a3.59,3.59,0,0,0-3.71-1.94c-.89.11-1.77.28-2.66.41-.38.06-.77.07-1.19.11A6.38,6.38,0,0,0,63.32,11.17Z" style="fill:#a17e53"/><path d="M40.42,68.2l.32.27a7.5,7.5,0,0,1,2.64,4.07c.07.22.06.34-.19.42s-.36,0-.44-.24a7.9,7.9,0,0,0-1.61-3,13.5,13.5,0,0,0-1-.93c-.16-.14-.29-.12-.45,0a5.14,5.14,0,0,0-1.27,1.88q-.41,1-.78,2c-.09.24-.18.35-.46.25s-.2-.26-.14-.44l.69-2a4.38,4.38,0,0,1,1.61-2.26L39,68.06A8.08,8.08,0,0,0,35.39,67,27.69,27.69,0,0,1,29,65.58a31.25,31.25,0,0,1-13.11-8A32.05,32.05,0,0,1,8.69,45.84a47.46,47.46,0,0,1-2-7.88,27.24,27.24,0,0,1-.35-6.45A32.38,32.38,0,0,1,9.14,20.37,44.06,44.06,0,0,1,18.68,6.82a2.49,2.49,0,0,0,.79-1.41,5.09,5.09,0,0,1,3.81-4.06c.77-.25,1.58-.34,2.37-.54A3.31,3.31,0,0,0,27.28,0,7.61,7.61,0,0,1,21.72,6.3c-.56.16-1.16.19-1.72.33a1.57,1.57,0,0,0-.68.41A50.25,50.25,0,0,0,13.9,13.4a37.51,37.51,0,0,0-6.13,13A26.24,26.24,0,0,0,7,35.12C7.65,41.76,9.47,48,13.38,53.56a30,30,0,0,0,14.44,11A34,34,0,0,0,35,66.31a17.47,17.47,0,0,1,2.57.46,16.24,16.24,0,0,1,2,.93.59.59,0,0,0,.46,0,10.9,10.9,0,0,1,4.61-1.44A30.81,30.81,0,0,0,55.36,63,30.47,30.47,0,0,0,70.62,45.2a46.91,46.91,0,0,0,2-8.6,24.73,24.73,0,0,0,.11-5.19c-.48-7.39-3.55-13.73-8-19.49C63.43,10.21,61.91,8.67,60.48,7a1.36,1.36,0,0,0-.94-.47A7.19,7.19,0,0,1,53.14,2c-.26-.62-.47-1.25-.75-2a6.9,6.9,0,0,0,3.24,1.12,5.5,5.5,0,0,1,4.66,4.19,2.87,2.87,0,0,0,.91,1.63,43.78,43.78,0,0,1,9.4,13.38,33,33,0,0,1,2.59,8.94,28.58,28.58,0,0,1,.22,6A40.55,40.55,0,0,1,72.23,42a34.57,34.57,0,0,1-5.33,11.91A30.52,30.52,0,0,1,50.32,65.72c-1.57.47-3.2.78-4.81,1.11-.91.19-1.87.19-2.77.42A18,18,0,0,0,40.42,68.2Z" style="fill:#a17e53"/><path d="M13,27.06c.49,3.58-.58,7.07-4.86,9.08a4.62,4.62,0,0,1-.69-2.76,4.93,4.93,0,0,1,2.08-3.49C10.69,29,11.84,28,13,27.06Z" style="fill:#a17e53"/><path d="M10.07,45a4.29,4.29,0,0,1-.73-5.27,17.61,17.61,0,0,1,1.21-1.66l2.08-2.74.22-.31A8.15,8.15,0,0,1,10.07,45Z" style="fill:#a17e53"/><path d="M62.45,49.77c0,1,0,2,0,3,0,.82.14,1.64.14,2.46a4.28,4.28,0,0,1-3.29,4.3c-.21.06-.32,0-.38-.2-.94-3.53-.5-6.05,2.56-8.91.25-.24.54-.44.81-.65Z" style="fill:#a17e53"/><path d="M70.8,59.53c-1.83,2.8-7.14,3.91-10.07,2.06a4.29,4.29,0,0,1,3.37-3,6.4,6.4,0,0,1,2.49.1C68,59,69.39,59.25,70.8,59.53Z" style="fill:#a17e53"/><path d="M0,27.51c1.46,1.07,2.9,2.08,4.3,3.14a4.24,4.24,0,0,1,1.76,3.25,4.6,4.6,0,0,1-.42,2.18c-.08.19-.18.23-.37.15A7.81,7.81,0,0,1,.1,29.51C0,28.85,0,28.18,0,27.51Z" style="fill:#a17e53"/><path d="M75.7,16.66c1.86,3.43,1.67,7.18-1.46,10.19a4.47,4.47,0,0,1-1-5.91C74,19.5,74.86,18.09,75.7,16.66Z" style="fill:#a17e53"/><path d="M66.94,35.08c.41.58.79,1.16,1.22,1.71.56.72,1.16,1.4,1.73,2.12A4.76,4.76,0,0,1,71,42a4.59,4.59,0,0,1-1.29,3.05C66,42.15,65.59,38.59,66.94,35.08Z" style="fill:#a17e53"/><path d="M3.22,49.92c.54.08,1.08.17,1.62.22,1,.11,2,.23,2.95.28a4.49,4.49,0,0,1,4.51,4c.05.32,0,.44-.39.48a8.74,8.74,0,0,1-4.48-.62A8.68,8.68,0,0,1,3.22,50S3.22,50,3.22,49.92Z" style="fill:#a17e53"/><path d="M16.56,20.08a8.77,8.77,0,0,1-3.52,5,8.75,8.75,0,0,1-4.28,1.3c-.3,0-.39-.08-.39-.37a4.44,4.44,0,0,1,3.47-4.67C13.41,20.92,15,20.51,16.56,20.08Z" style="fill:#a17e53"/><path d="M9,59.5c1.78-.32,3.57-.7,5.38-1a4,4,0,0,1,4,1.69c.29.4.52.84.77,1.26C16.58,63.51,10.53,62.27,9,59.5Z" style="fill:#a17e53"/><path d="M66.76,26.94c.49.46.9.88,1.35,1.25.79.66,1.6,1.28,2.39,1.93a4.64,4.64,0,0,1,1.86,3.53,4.79,4.79,0,0,1-.75,2.5,8.38,8.38,0,0,1-4.19-4A9.41,9.41,0,0,1,66.76,26.94Z" style="fill:#a17e53"/><path d="M65.68,43c.31.93.62,1.87.94,2.81s.73,1.78.94,2.7a4.31,4.31,0,0,1-2.25,4.78C62.93,51.12,63.14,45.29,65.68,43Z" style="fill:#a17e53"/><path d="M5.5,26.84c-3.25-3.2-3.19-7-1.4-10.22.5.91,1,1.83,1.51,2.74.33.58.7,1.12,1,1.7A4.36,4.36,0,0,1,5.5,26.84Z" style="fill:#a17e53"/><path d="M17.47,49.74a8.51,8.51,0,0,1,3.72,5.8,10.18,10.18,0,0,1-.33,3.7c-.06.26-.17.33-.45.24a4.27,4.27,0,0,1-3.2-3.54,7.79,7.79,0,0,1,0-1.64C17.26,52.79,17.37,51.29,17.47,49.74Z" style="fill:#a17e53"/><path d="M61.7,67.81A8,8,0,0,1,51.48,66.6a4.45,4.45,0,0,1,3.75-1.81,4.63,4.63,0,0,1,2.07.6Z" style="fill:#a17e53"/><path d="M71.41,18.8a4.44,4.44,0,0,1-2.31-5.49c.41-1.33.89-2.64,1.33-4,.09-.28.15-.57.25-.92a9.41,9.41,0,0,1,2.22,4.84A8.71,8.71,0,0,1,71.41,18.8Z" style="fill:#a17e53"/><path d="M79.7,27.48c.23,3.16-.72,6.25-3.94,8.13-.31.18-.64.35-1,.5-.56.27-.57.27-.79-.33a4.36,4.36,0,0,1,1.52-5.17c1.09-.84,2.22-1.62,3.33-2.44C79.15,28,79.4,27.73,79.7,27.48Z" style="fill:#a17e53"/><path d="M76.64,49.9c-1.44,2.56-3.21,4.55-6.25,4.9-.86.1-1.75,0-2.62.08-.29,0-.34-.14-.31-.37a4.24,4.24,0,0,1,3.47-3.91c.89-.19,1.81-.2,2.71-.31s1.78-.24,2.67-.36Z" style="fill:#a17e53"/><path d="M28.29,66.59c-3,3-6.8,3.2-10.28,1.19l.26-.14c1.25-.67,2.52-1.33,3.76-2a5.37,5.37,0,0,1,3.14-.81A4.58,4.58,0,0,1,28.29,66.59Z" style="fill:#a17e53"/><path d="M7.54,45.76A8,8,0,0,1,.36,38.35a.32.32,0,0,1,.1,0c1.35.61,2.7,1.23,4.06,1.82a5.07,5.07,0,0,1,2.8,2.52A4.8,4.8,0,0,1,7.54,45.76Z" style="fill:#a17e53"/><path d="M9.06,8.54c.56,1.69,1.19,3.38,1.68,5.11a4.35,4.35,0,0,1-2.2,5.09.67.67,0,0,1-.14,0C6.14,16.21,6.53,10.62,9.06,8.54Z" style="fill:#a17e53"/><path d="M79.44,38.36A9.26,9.26,0,0,1,77.53,43a8.33,8.33,0,0,1-5.29,2.83,4.48,4.48,0,0,1,2.43-5.32C76.24,39.75,77.83,39.07,79.44,38.36Z" style="fill:#a17e53"/><path d="M29.27,64.13a4.26,4.26,0,0,1-4.8-3c-.38-1.14-.6-2.33-.91-3.5-.15-.56-.34-1.11-.54-1.76a9.69,9.69,0,0,1,4,2.3A8.29,8.29,0,0,1,29.27,64.13Z" style="fill:#a17e53"/><path d="M63.22,20.06c1.23.36,2.44.7,3.64,1.06a14.47,14.47,0,0,1,2.05.69A4.24,4.24,0,0,1,71.4,26c0,.3-.12.39-.41.37a8,8,0,0,1-7.58-5.74C63.34,20.47,63.28,20.25,63.22,20.06Z" style="fill:#a17e53"/><path d="M14.48,53.33a4.43,4.43,0,0,1-2.35-3.54,5.46,5.46,0,0,1,.37-2.34c.56-1.47,1.1-3,1.64-4.4A8,8,0,0,1,14.48,53.33Z" style="fill:#a17e53"/><path d="M56.68,55.87c-.42,1.64-.8,3.27-1.26,4.88A4.22,4.22,0,0,1,52.18,64a8.39,8.39,0,0,1-1.45.12c-.08,0-.24-.15-.23-.22a8.53,8.53,0,0,1,1.89-5.36A9.57,9.57,0,0,1,56.68,55.87Z" style="fill:#a17e53"/><path d="M28,70.87c.5-.31,1-.58,1.43-.88.82-.55,1.63-1.11,2.43-1.69a4.84,4.84,0,0,1,2.84-1,5.66,5.66,0,0,1,1.78.35,4.35,4.35,0,0,1,1.61,1.12C35.49,71.85,31.82,72.56,28,70.87Z" style="fill:#a17e53"/><path d="M52.19,71a8,8,0,0,1-9.94-2.42,4.28,4.28,0,0,1,4.89-1.06,4.07,4.07,0,0,1,.76.41Z" style="fill:#a17e53"/><path d="M31.93,58.55A10.26,10.26,0,0,1,35.41,60a7.65,7.65,0,0,1,3.29,5.11c.06.27.1.54.15.81s-.06.37-.31.39a4.31,4.31,0,0,1-4.82-3c-.49-1.25-.9-2.53-1.36-3.79C32.23,59.2,32.08,58.9,31.93,58.55Z" style="fill:#a17e53"/><path d="M48.07,58.57c-.6,1.56-1.17,3.13-1.81,4.68a4.27,4.27,0,0,1-3,2.75,5.23,5.23,0,0,1-2.15,0C41,62.59,44.26,59.1,48.07,58.57Z" style="fill:#a17e53"/><path d="M16.27,1.25c0,.6,0,1.16.1,1.71.08.85.17,1.71.27,2.56.27,2.33-.5,4.23-2.93,5.08l-.35.1C12.13,7.38,12.61,4.12,16.27,1.25Z" style="fill:#a17e53"/><path d="M63.49,1.25a9.22,9.22,0,0,1,3.07,3.86,8.08,8.08,0,0,1-.11,5.61c-.21-.07-.41-.12-.6-.19a4,4,0,0,1-2.74-4c0-1,.16-2,.24-2.94,0-.63.08-1.27.12-1.9C63.48,1.56,63.48,1.44,63.49,1.25Z" style="fill:#a17e53"/><path d="M12.1,17.93A4.27,4.27,0,0,1,16.4,14c1.16,0,2.32-.09,3.48-.14a3.48,3.48,0,0,0,.37-.05,9.07,9.07,0,0,1-3.66,3.8A6.77,6.77,0,0,1,12.1,17.93Z" style="fill:#a17e53"/><path d="M59.51,13.9c1.26,0,2.53.11,3.8.1a4.26,4.26,0,0,1,4.33,3.68,1.8,1.8,0,0,1,0,.21C65,19,61,17,59.51,13.9Z" style="fill:#a17e53"/><path d="M16.51,11.18a4,4,0,0,1,3.1-2.8,10.08,10.08,0,0,1,2.45.24l2.2.23.21,0C22.89,11.44,18.78,12.62,16.51,11.18Z" style="fill:#a17e53"/><path d="M63.32,11.17a6.38,6.38,0,0,1-8-2.26c.41,0,.8-.05,1.19-.11.89-.13,1.77-.3,2.66-.41a3.59,3.59,0,0,1,3.71,1.94C63,10.59,63.17,10.87,63.32,11.17Z" style="fill:#a17e53"/><path d="M57.42,49.49l-4.23,0-3.11-6.37q-1.28.58-2.08.87a14.93,14.93,0,0,1-4.87.93A14.15,14.15,0,0,1,39,44.2a33.93,33.93,0,0,0-6.37-1.62,6.87,6.87,0,0,0-1,.06,6.17,6.17,0,0,0-1.13.38,2.47,2.47,0,0,0-1.25,1.19L27.09,49a.94.94,0,0,1-.87.52.32.32,0,0,1-.32-.25.62.62,0,0,1,0-.49L40.81,14Zm-7.93-7.61a1.48,1.48,0,0,0-.15-.52L39.36,20,30.22,42.12q1.85-.58,3.53-1a11.14,11.14,0,0,1,2.89-.46,17.58,17.58,0,0,1,5.47,1.18A17.26,17.26,0,0,0,47.29,43a3.68,3.68,0,0,0,1.62-.29A.89.89,0,0,0,49.49,41.88Z" style="fill:#221f20"/><path d="M81.78,38.07a17.32,17.32,0,0,1-.46,4.53A9,9,0,0,1,79,46.48,10.52,10.52,0,0,1,75.07,49a12.18,12.18,0,0,1-4,.64,14.62,14.62,0,0,1-4.4-.64,9.84,9.84,0,0,1-4.25-2.51A11,11,0,0,1,60,42.83a11.3,11.3,0,0,1-.75-4.13V21.64h3.3V38.77a10.08,10.08,0,0,0,2.72,7.38,8.39,8.39,0,0,0,6.25,2.54,10.76,10.76,0,0,0,3.82-.58,8.73,8.73,0,0,0,3-2.06,8.35,8.35,0,0,0,2.08-3.33A15.54,15.54,0,0,0,81,38V22.1c0-.31.13-.46.4-.46l.35.41Z" style="fill:#221f20"/><path d="M111.36,45.18q0,.75-3.13,2.42a14.61,14.61,0,0,1-6.94,2,16.84,16.84,0,0,1-6.08-1.06,12.34,12.34,0,0,1-4.63-3,14,14,0,0,1-3.18-5,17.44,17.44,0,0,1-.93-5.84,12.68,12.68,0,0,1,4-9A13.47,13.47,0,0,1,96,22.5a17.22,17.22,0,0,1,5.21-.86,12.23,12.23,0,0,1,3.7.57,12.79,12.79,0,0,1,3.24,1.53.55.55,0,0,1,.35.68c0,.19-.14.36-.41.51s-.5-.16-1-.59a9.19,9.19,0,0,0-2.49-1.27,9.65,9.65,0,0,0-3.36-.62,11,11,0,0,0-4,.69,12.25,12.25,0,0,0-3.59,2.3A9.67,9.67,0,0,0,90.84,30a18.92,18.92,0,0,0-.9,5.53,16.81,16.81,0,0,0,1.16,6.62,10.24,10.24,0,0,0,2.66,3.68,10.58,10.58,0,0,0,7.52,2.88,12.87,12.87,0,0,0,4.05-.58q2.66-.87,2.66-1.9v-10h3.36Z" style="fill:#221f20"/><path d="M138.38,38.07a17.32,17.32,0,0,1-.46,4.53,9,9,0,0,1-2.31,3.89,10.52,10.52,0,0,1-3.94,2.5,12.18,12.18,0,0,1-4,.64,14.62,14.62,0,0,1-4.4-.64A9.84,9.84,0,0,1,119,46.47a11,11,0,0,1-2.4-3.64,11.3,11.3,0,0,1-.75-4.13V21.64h3.3V38.77a10.08,10.08,0,0,0,2.72,7.38,8.39,8.39,0,0,0,6.25,2.54,10.76,10.76,0,0,0,3.82-.58,8.73,8.73,0,0,0,3-2.06A8.35,8.35,0,0,0,137,42.73a15.54,15.54,0,0,0,.61-4.75V22.1c0-.31.13-.46.4-.46l.35.41Z" style="fill:#221f20"/><path d="M158.58,42.12a7,7,0,0,1-2.46,5.39,8.18,8.18,0,0,1-5.64,2.22,9.19,9.19,0,0,1-4.08-.84,17.37,17.37,0,0,1-3.73-2.62,5.51,5.51,0,0,1-.9-1,1.77,1.77,0,0,1-.38-1q0-.69.52-.69c.15,0,.41.31.75.94A6.58,6.58,0,0,0,144,46.24,10.05,10.05,0,0,0,146.43,48a8.26,8.26,0,0,0,3.7.86,6,6,0,0,0,4.25-1.53A5.06,5.06,0,0,0,156,43.4a5.69,5.69,0,0,0-.55-2.36,9.94,9.94,0,0,0-1.77-2.53q-2.43-1.9-4.2-3.34a28.47,28.47,0,0,1-2.63-2.36A8.29,8.29,0,0,1,145.07,30a7.46,7.46,0,0,1-.67-2.76,6.68,6.68,0,0,1,.43-2.16,5.85,5.85,0,0,1,1.24-2.1,6.77,6.77,0,0,1,1.77-1,6,6,0,0,1,2.4-.52,6.44,6.44,0,0,1,2.43.52q1.27.52,1.27,1a.41.41,0,0,1-.46.46,3.37,3.37,0,0,1-1.1-.52,4.23,4.23,0,0,0-2.2-.52,3.53,3.53,0,0,0-2.78,1,3.68,3.68,0,0,0-.93,2.54,3.92,3.92,0,0,0,.4,1.79,10.86,10.86,0,0,0,1.68,2.19l3.24,2.94q2.08,1.56,2.37,1.82t1.1,1.07a15.83,15.83,0,0,1,2.46,3A6.38,6.38,0,0,1,158.58,42.12Z" style="fill:#221f20"/><path d="M181.85,22a.49.49,0,0,1-.29.4h-9.32V49.39h-3.36V22.45h-9c-.31-.12-.46-.27-.46-.46s.15-.23.46-.35h21.7A.49.49,0,0,1,181.85,22Z" style="fill:#221f20"/><path d="M212,49.49l-4.23,0-3.11-6.37q-1.28.58-2.08.87a14.93,14.93,0,0,1-4.87.93,14.15,14.15,0,0,1-4.11-.69,33.93,33.93,0,0,0-6.37-1.62,6.86,6.86,0,0,0-1,.06,6.15,6.15,0,0,0-1.13.38,2.47,2.47,0,0,0-1.25,1.19L181.67,49a.94.94,0,0,1-.87.52.32.32,0,0,1-.32-.25.62.62,0,0,1,0-.49L195.39,14Zm-7.93-7.61a1.48,1.48,0,0,0-.15-.52L193.94,20,184.8,42.12q1.85-.58,3.53-1a11.14,11.14,0,0,1,2.89-.46,17.58,17.58,0,0,1,5.47,1.18A17.26,17.26,0,0,0,201.87,43a3.68,3.68,0,0,0,1.62-.29A.89.89,0,0,0,204.07,41.88Z" style="fill:#221f20"/></svg>